<svg width="113" height="135" viewBox="0 0 113 135" fill="none" xmlns="http://www.w3.org/2000/svg">
<path d="M0 0V127.5" transform="translate(105 26.25) scale(0.5)" stroke="white" stroke-width="12"/>
<path d="M75 44.6708L0 90V0" transform="translate(67.5 45) scale(0.5)" stroke="white" stroke-width="12"/>
<circle cx="15" cy="15" r="15" transform="translate(60 37.5) scale(0.5)" fill="white"/>
<circle cx="15" cy="15" r="15" transform="translate(97.5 82.5) scale(0.5)" fill="white"/>
<circle cx="15" cy="15" r="15" transform="translate(97.5 18.75) scale(0.5)" fill="white"/>
<path d="M0 0V165" transform="translate(7.5 7.5) scale(0.5)" stroke="white" stroke-width="12"/>
<path d="M0 0V165" transform="translate(45 45) scale(0.5)" stroke="white" stroke-width="12"/>
<path d="M0 0H75" transform="translate(7.49908 67.6856) scale(0.5)" stroke="white" stroke-width="12"/>
<circle cx="15" cy="15" r="15" transform="scale(0.5)" fill="white"/>
<circle cx="15" cy="15" r="15" transform="translate(0 82.5) scale(0.5)" fill="white"/>
<circle cx="15" cy="15" r="15" transform="translate(37.5 37.5) scale(0.5)" fill="white"/>
<circle cx="15" cy="15" r="15" transform="translate(37.5 120) scale(0.5)" fill="white"/>
</svg>
